PathFileType	4	(X/Y/Z)	C:\Users\86182\Documents\cortex\Trimmed_M3_H7.trc
DataRate	CameraRate	NumFrames	NumMarkers	Units	OrigDataRate	OrigDataStartFrame	OrigNumFrames
100.00	100.00	       56	2	mm	100.00	541	       901
Frame#	Time	gripper			box			
		X1	Y1	Z1	X2	Y2	Z2	

541	5.400	267.71130	173.08067	291.97424	268.03406	169.60391	155.27808	
542	5.410	267.70828	173.07980	291.97919	268.03079	169.60251	155.28032	
543	5.420	267.70053	173.08041	291.98477	268.02496	169.60065	155.28259	
544	5.430	267.68970	173.08231	291.99060	268.01770	169.59859	155.28474	
545	5.440	267.67822	173.08513	291.99603	268.01105	169.59680	155.28639	
546	5.450	267.66843	173.08853	292.00040	268.00720	169.59581	155.28708	
547	5.460	267.66196	173.09210	292.00336	268.00742	169.59593	155.28662	
548	5.470	267.65927	173.09554	292.00464	268.01147	169.59705	155.28519	
549	5.480	267.65976	173.09854	292.00397	268.01773	169.59882	155.28311	
550	5.490	267.66226	173.10097	292.00125	268.02426	169.60078	155.28072	
551	5.500	267.66550	173.10281	291.99670	268.02972	169.60271	155.27823	
552	5.510	267.66867	173.10426	291.99078	268.03378	169.60437	155.27589	
553	5.520	267.67163	173.10530	291.98456	268.03653	169.60568	155.27400	
554	5.530	267.67450	173.10582	291.97928	268.03842	169.60657	155.27281	
555	5.540	267.67740	173.10556	291.97607	268.03983	169.60696	155.27257	
556	5.550	267.68021	173.10437	291.97549	268.04108	169.60690	155.27338	
557	5.560	267.68311	173.10219	291.97748	268.04230	169.60641	155.27502	
558	5.570	267.68634	173.09924	291.98166	268.04337	169.60565	155.27713	
559	5.580	267.68958	173.09608	291.98749	268.04425	169.60474	155.27927	
560	5.590	267.69217	173.09335	291.99414	268.04501	169.60381	155.28108	
561	5.600	267.69391	173.09143	292.00067	268.04572	169.60298	155.28232	
562	5.610	267.69519	173.09039	292.00586	268.04645	169.60239	155.28284	
563	5.620	267.69687	173.09007	292.00854	268.04706	169.60216	155.28261	
564	5.630	267.69968	173.09023	292.00812	268.04733	169.60234	155.28177	
565	5.640	267.70377	173.09061	292.00470	268.04712	169.60297	155.28049	
566	5.650	267.70871	173.09111	291.99924	268.04651	169.60382	155.27907	
567	5.660	267.71356	173.09184	291.99304	268.04575	169.60469	155.27777	
568	5.670	267.71674	173.09300	291.98761	268.04504	169.60542	155.27676	
569	5.680	267.71667	173.09471	291.98425	268.04443	169.60596	155.27608	
570	5.690	267.71262	173.09685	291.98376	268.04388	169.60631	155.27563	
571	5.700	267.70511	173.09915	291.98642	268.04340	169.60649	155.27534	
572	5.710	267.69592	173.10135	291.99191	268.04306	169.60655	155.27528	
573	5.720	267.68707	173.10310	291.99908	268.04309	169.60648	155.27560	
574	5.730	267.67999	173.10425	292.00653	268.04352	169.60629	155.27631	
575	5.740	267.67535	173.10474	292.01282	268.04425	169.60606	155.27721	
576	5.750	267.67331	173.10464	292.01685	268.04504	169.60582	155.27811	
577	5.760	267.67392	173.10408	292.01807	268.04575	169.60562	155.27887	
578	5.770	267.67719	173.10310	292.01630	268.04636	169.60544	155.27942	
579	5.780	267.68311	173.10176	292.01193	268.04684	169.60529	155.27980	
580	5.790	267.69162	173.10011	292.00580	268.04730	169.60513	155.28003	
581	5.800	267.70212	173.09818	291.99911	268.04776	169.60498	155.28015	
582	5.810	267.71295	173.09616	291.99298	268.04819	169.60478	155.28020	
583	5.820	267.72189	173.09430	291.98846	268.04849	169.60458	155.28023	
584	5.830	267.72720	173.09277	291.98627	268.04858	169.60437	155.28024	
585	5.840	267.72787	173.09186	291.98682	268.04825	169.60419	155.28026	
586	5.850	267.72372	173.09187	291.98984	268.04745	169.60406	155.28027	
587	5.860	267.71558	173.09297	291.99487	268.04614	169.60396	155.28036	
588	5.870	267.70514	173.09500	292.00095	268.04440	169.60378	155.28059	
589	5.880	267.69452	173.09744	292.00702	268.04257	169.60347	155.28102	
590	5.890	267.68558	173.09978	292.01205	268.04102	169.60303	155.28159	
591	5.900	267.67947	173.10164	292.01526	268.04019	169.60258	155.28209	
592	5.910	267.67664	173.10289	292.01630	268.04031	169.60226	155.28233	
593	5.920	267.67731	173.10339	292.01517	268.04123	169.60213	155.28226	
594	5.930	267.68164	173.10310	292.01199	268.04254	169.60219	155.28188	
595	5.940	267.68967	173.10201	292.00696	268.04382	169.60255	155.28123	
596	5.950	267.70093	173.10025	292.00040	268.04489	169.60320	155.28041	
